<svg width="354" height="30" viewBox="0 0 354 30" fill="none" xmlns="http://www.w3.org/2000/svg">
<path d="M27.2448 14.9431C27.2448 18.1154 26.6434 20.8143 25.4408 23.0397C24.2476 25.265 22.6188 26.9649 20.5544 28.1391C18.4995 29.3039 16.1889 29.8863 13.6226 29.8863C11.0374 29.8863 8.7173 29.2991 6.66238 28.1249C4.60745 26.9506 2.9834 25.2508 1.79022 23.0255C0.597035 20.8001 0.000443906 18.1059 0.000443906 14.9431C0.000443906 11.7707 0.597035 9.07186 1.79022 6.84648C2.9834 4.6211 4.60745 2.92602 6.66238 1.76125C8.7173 0.58701 11.0374 -0.000112057 13.6226 -0.000112057C16.1889 -0.000112057 18.4995 0.58701 20.5544 1.76125C22.6188 2.92602 24.2476 4.6211 25.4408 6.84648C26.6434 9.07186 27.2448 11.7707 27.2448 14.9431ZM21.009 14.9431C21.009 12.8881 20.7012 11.1552 20.0857 9.74421C19.4796 8.33322 18.6226 7.26315 17.5146 6.53398C16.4067 5.80481 15.1093 5.44023 13.6226 5.44023C12.1359 5.44023 10.8385 5.80481 9.73056 6.53398C8.6226 7.26315 7.76086 8.33322 7.14533 9.74421C6.53927 11.1552 6.23624 12.8881 6.23624 14.9431C6.23624 16.998 6.53927 18.7309 7.14533 20.1419C7.76086 21.5529 8.6226 22.623 9.73056 23.3522C10.8385 24.0813 12.1359 24.4459 13.6226 24.4459C15.1093 24.4459 16.4067 24.0813 17.5146 23.3522C18.6226 22.623 19.4796 21.5529 20.0857 20.1419C20.7012 18.7309 21.009 16.998 21.009 14.9431ZM49.7696 0.397615H55.9202V19.2897C55.9202 21.4109 55.4136 23.2669 54.4003 24.8578C53.3965 26.4488 51.9903 27.6893 50.1816 28.5794C48.3728 29.4601 46.2658 29.9005 43.8605 29.9005C41.4458 29.9005 39.334 29.4601 37.5253 28.5794C35.7166 27.6893 34.3103 26.4488 33.3066 24.8578C32.3028 23.2669 31.8009 21.4109 31.8009 19.2897V0.397615H37.9514V18.7641C37.9514 19.872 38.1929 20.8569 38.6759 21.7186C39.1683 22.5804 39.8596 23.2575 40.7497 23.7499C41.6399 24.2423 42.6768 24.4885 43.8605 24.4885C45.0537 24.4885 46.0906 24.2423 46.9713 23.7499C47.8615 23.2575 48.548 22.5804 49.031 21.7186C49.5234 20.8569 49.7696 19.872 49.7696 18.7641V0.397615ZM59.8726 5.46864V0.397615H83.7646V5.46864H74.8584V29.4885H68.7789V5.46864H59.8726ZM98.0118 29.4885H87.6993V0.397615H98.097C101.023 0.397615 103.542 0.980002 105.654 2.14478C107.766 3.30008 109.39 4.96201 110.526 7.13057C111.672 9.29913 112.245 11.8938 112.245 14.9147C112.245 17.945 111.672 20.5491 110.526 22.7272C109.39 24.9052 107.756 26.5766 105.625 27.7414C103.504 28.9061 100.966 29.4885 98.0118 29.4885ZM93.8499 24.2186H97.7561C99.5743 24.2186 101.104 23.8967 102.344 23.2527C103.594 22.5993 104.532 21.5908 105.157 20.2272C105.791 18.8541 106.108 17.0832 106.108 14.9147C106.108 12.765 105.791 11.0084 105.157 9.64478C104.532 8.28114 103.599 7.27735 102.358 6.63341C101.118 5.98947 99.5885 5.6675 97.7703 5.6675H93.8499V24.2186ZM143.534 14.9431C143.534 18.1154 142.933 20.8143 141.73 23.0397C140.537 25.265 138.908 26.9649 136.843 28.1391C134.789 29.3039 132.478 29.8863 129.912 29.8863C127.326 29.8863 125.006 29.2991 122.951 28.1249C120.897 26.9506 119.272 25.2508 118.079 23.0255C116.886 20.8001 116.29 18.1059 116.29 14.9431C116.29 11.7707 116.886 9.07186 118.079 6.84648C119.272 4.6211 120.897 2.92602 122.951 1.76125C125.006 0.58701 127.326 -0.000112057 129.912 -0.000112057C132.478 -0.000112057 134.789 0.58701 136.843 1.76125C138.908 2.92602 140.537 4.6211 141.73 6.84648C142.933 9.07186 143.534 11.7707 143.534 14.9431ZM137.298 14.9431C137.298 12.8881 136.99 11.1552 136.375 9.74421C135.769 8.33322 134.912 7.26315 133.804 6.53398C132.696 5.80481 131.398 5.44023 129.912 5.44023C128.425 5.44023 127.128 5.80481 126.02 6.53398C124.912 7.26315 124.05 8.33322 123.434 9.74421C122.828 11.1552 122.525 12.8881 122.525 14.9431C122.525 16.998 122.828 18.7309 123.434 20.1419C124.05 21.5529 124.912 22.623 126.02 23.3522C127.128 24.0813 128.425 24.4459 129.912 24.4459C131.398 24.4459 132.696 24.0813 133.804 23.3522C134.912 22.623 135.769 21.5529 136.375 20.1419C136.99 18.7309 137.298 16.998 137.298 14.9431ZM174.823 14.9431C174.823 18.1154 174.222 20.8143 173.019 23.0397C171.826 25.265 170.197 26.9649 168.133 28.1391C166.078 29.3039 163.767 29.8863 161.201 29.8863C158.616 29.8863 156.295 29.2991 154.241 28.1249C152.186 26.9506 150.562 25.2508 149.368 23.0255C148.175 20.8001 147.579 18.1059 147.579 14.9431C147.579 11.7707 148.175 9.07186 149.368 6.84648C150.562 4.6211 152.186 2.92602 154.241 1.76125C156.295 0.58701 158.616 -0.000112057 161.201 -0.000112057C163.767 -0.000112057 166.078 0.58701 168.133 1.76125C170.197 2.92602 171.826 4.6211 173.019 6.84648C174.222 9.07186 174.823 11.7707 174.823 14.9431ZM168.587 14.9431C168.587 12.8881 168.279 11.1552 167.664 9.74421C167.058 8.33322 166.201 7.26315 165.093 6.53398C163.985 5.80481 162.687 5.44023 161.201 5.44023C159.714 5.44023 158.417 5.80481 157.309 6.53398C156.201 7.26315 155.339 8.33322 154.723 9.74421C154.117 11.1552 153.814 12.8881 153.814 14.9431C153.814 16.998 154.117 18.7309 154.723 20.1419C155.339 21.5529 156.201 22.623 157.309 23.3522C158.417 24.0813 159.714 24.4459 161.201 24.4459C162.687 24.4459 163.985 24.0813 165.093 23.3522C166.201 22.623 167.058 21.5529 167.664 20.1419C168.279 18.7309 168.587 16.998 168.587 14.9431ZM179.379 29.4885V0.397615H190.856C193.053 0.397615 194.928 0.790608 196.481 1.57659C198.044 2.35311 199.232 3.45633 200.047 4.88625C200.87 6.30671 201.282 7.97811 201.282 9.90046C201.282 11.8323 200.866 13.4942 200.032 14.8863C199.199 16.2688 197.992 17.3294 196.41 18.0681C194.838 18.8067 192.935 19.176 190.7 19.176H183.015V14.2328H189.706C190.88 14.2328 191.855 14.0719 192.632 13.7499C193.408 13.4279 193.986 12.945 194.365 12.301C194.753 11.6571 194.947 10.8569 194.947 9.90046C194.947 8.93455 194.753 8.12015 194.365 7.45728C193.986 6.7944 193.404 6.2925 192.618 5.95159C191.841 5.60121 190.861 5.42603 189.677 5.42603H185.53V29.4885H179.379ZM195.089 16.2499L202.319 29.4885H195.53L188.456 16.2499H195.089ZM241.62 14.9431C241.62 18.1154 241.018 20.8143 239.816 23.0397C238.623 25.265 236.994 26.9649 234.929 28.1391C232.874 29.3039 230.564 29.8863 227.998 29.8863C225.412 29.8863 223.092 29.2991 221.037 28.1249C218.982 26.9506 217.358 25.2508 216.165 23.0255C214.972 20.8001 214.375 18.1059 214.375 14.9431C214.375 11.7707 214.972 9.07186 216.165 6.84648C217.358 4.6211 218.982 2.92602 221.037 1.76125C223.092 0.58701 225.412 -0.000112057 227.998 -0.000112057C230.564 -0.000112057 232.874 0.58701 234.929 1.76125C236.994 2.92602 238.623 4.6211 239.816 6.84648C241.018 9.07186 241.62 11.7707 241.62 14.9431ZM235.384 14.9431C235.384 12.8881 235.076 11.1552 234.461 9.74421C233.855 8.33322 232.998 7.26315 231.89 6.53398C230.782 5.80481 229.484 5.44023 227.998 5.44023C226.511 5.44023 225.214 5.80481 224.106 6.53398C222.998 7.26315 222.136 8.33322 221.52 9.74421C220.914 11.1552 220.611 12.8881 220.611 14.9431C220.611 16.998 220.914 18.7309 221.52 20.1419C222.136 21.5529 222.998 22.623 224.106 23.3522C225.214 24.0813 226.511 24.4459 227.998 24.4459C229.484 24.4459 230.782 24.0813 231.89 23.3522C232.998 22.623 233.855 21.5529 234.461 20.1419C235.076 18.7309 235.384 16.998 235.384 14.9431ZM246.176 29.4885V0.397615H265.437V5.46864H252.326V12.4005H264.159V17.4715H252.326V29.4885H246.176ZM269.574 29.4885V0.397615H288.836V5.46864H275.725V12.4005H287.557V17.4715H275.725V29.4885H269.574ZM299.123 0.397615V29.4885H292.973V0.397615H299.123ZM329.851 10.5823H323.63C323.516 9.77735 323.284 9.06239 322.934 8.43739C322.583 7.80292 322.133 7.26315 321.584 6.81807C321.035 6.37299 320.401 6.03208 319.681 5.79534C318.971 5.5586 318.199 5.44023 317.366 5.44023C315.86 5.44023 314.548 5.81428 313.431 6.56239C312.313 7.30102 311.447 8.38057 310.831 9.80103C310.216 11.212 309.908 12.926 309.908 14.9431C309.908 17.0169 310.216 18.7594 310.831 20.1703C311.456 21.5813 312.328 22.6467 313.445 23.3664C314.562 24.0861 315.855 24.4459 317.323 24.4459C318.147 24.4459 318.909 24.337 319.61 24.1192C320.32 23.9014 320.95 23.5842 321.499 23.1675C322.048 22.7414 322.503 22.2253 322.863 21.6192C323.232 21.0131 323.488 20.3219 323.63 19.5453L329.851 19.5738C329.69 20.909 329.288 22.1969 328.644 23.4374C328.009 24.6684 327.152 25.7717 326.073 26.747C325.003 27.713 323.724 28.48 322.238 29.0482C320.76 29.6069 319.089 29.8863 317.223 29.8863C314.629 29.8863 312.309 29.2991 310.263 28.1249C308.227 26.9506 306.617 25.2508 305.434 23.0255C304.259 20.8001 303.672 18.1059 303.672 14.9431C303.672 11.7707 304.269 9.07186 305.462 6.84648C306.655 4.6211 308.275 2.92602 310.32 1.76125C312.366 0.58701 314.667 -0.000112057 317.223 -0.000112057C318.909 -0.000112057 320.472 0.23663 321.911 0.710115C323.36 1.1836 324.643 1.87489 325.76 2.78398C326.878 3.6836 327.787 4.78682 328.488 6.09364C329.198 7.40046 329.652 8.89667 329.851 10.5823ZM334.262 29.4885V0.397615H353.864V5.46864H340.412V12.4005H352.856V17.4715H340.412V24.4175H353.921V29.4885H334.262Z" fill="black"/>
</svg>
